<svg id="Слой_1" data-name="Слой 1" xmlns="http://www.w3.org/2000/svg" viewBox="0 0 526.72 525.83"><defs><style>.cls-1{fill:#0068a2;}.cls-2{fill:#fff;}.cls-3,.cls-5,.cls-6{fill:#0069a3;}.cls-4{fill:none;stroke-linecap:round;stroke-linejoin:round;}.cls-4,.cls-5{stroke:#fff;}.cls-4,.cls-5,.cls-6,.cls-7{stroke-width:2px;}.cls-5,.cls-6,.cls-7{stroke-miterlimit:10;}.cls-6,.cls-7{stroke:#f6f6f6;}.cls-7{fill:#006aa4;}</style></defs><path class="cls-1" d="M35.87,413.16a262.53,262.53,0,0,1,76.19-175.79c73-73.13,167.66-77.52,176.94-77.81,97.4-3,162.71,50.35,178.47,64,12.39,10.76,86.74,77.51,90.19,189.2,3.13,101.5-54.5,168.58-66.45,181.91-73.38,81.89-170.95,86.22-186.89,86.66-112.51,3.12-183.58-68-194.94-79.77C35.21,524.8,35.49,430.78,35.87,413.16Z" transform="translate(-32.36 -155.62)"/><path class="cls-2" d="M196.26,326.85c16.32-16.34,34.05-24.08,42.7-27.76a145.12,145.12,0,0,1,46.91-11.3c10.75-.71,28.83-1.74,50.17,5.75,17,6,28.06,14.51,37.34,21.83,11.3,8.89,28.72,22.63,40.6,47.29,10.11,21,11.26,39.64,11.87,51.51.53,10.14,1.26,27.32-5.36,48.26a127.85,127.85,0,0,1-24.13,43.47c-6.83,8.37-21.61,26.06-47.68,37.72-20.82,9.31-38.78,10.27-49,10.72-11.66.52-33.48,1.24-58.59-9.38-24-10.13-38.21-25.21-45-32.55a136.88,136.88,0,0,1-27-42.51,134.41,134.41,0,0,1-8.62-42.13C159.73,411.3,160.61,362.57,196.26,326.85Z" transform="translate(-32.36 -155.62)"/><circle class="cls-3" cx="255.86" cy="263.27" r="110.87"/><polygon class="cls-2" points="78.45 82.03 165.77 171.65 176.8 161.93 87.13 71.82 78.45 82.03"/><polygon class="cls-2" points="255.86 0 269.96 0 270.24 132.09 255.86 132.53 255.86 0"/><polygon class="cls-2" points="435.32 64.72 445.55 75.78 349.38 171.65 337.37 161.8 435.32 64.72"/><polygon class="cls-2" points="526.72 257.86 526.72 271.14 393.83 271.45 393.51 257.48 526.72 257.86"/><polygon class="cls-2" points="457.27 441.16 447.33 452.1 353.17 357.54 362.49 346.88 457.27 441.16"/><polygon class="cls-2" points="268.06 525.83 254.28 525.83 254.28 397.51 267.3 397.26 268.06 525.83"/><polygon class="cls-2" points="155.04 345.01 163.7 355.33 74.28 445.52 63.94 435.56 155.04 345.01"/><polygon class="cls-2" points="128.09 270.69 0 270.69 0 257.86 128.09 257.93 128.09 270.69"/><path class="cls-2" d="M267.35,436.4,285,453.83l-45.48,49.31c-7.82,3.72-16.46,2.23-20.88-3.07-5.08-6.1-2.38-14.66-2.1-15.51,1.44-4.33,4.11-6.48,11-12.54,5.09-4.47,9.9-9.27,15.13-13.59C248.67,453.44,257.14,446.16,267.35,436.4Z" transform="translate(-32.36 -155.62)"/><path class="cls-2" d="M294.06,445.79,275.3,427.12a4.15,4.15,0,0,0-4.6,4.5l18.67,19.15a3.88,3.88,0,0,0,4-1.15A3.83,3.83,0,0,0,294.06,445.79Z" transform="translate(-32.36 -155.62)"/><path class="cls-2" d="M357.16,357l7.27,7-7.66,11.78-6.41,2.3-58.69,59.07-7.28-7.85,58.21-58.21,2.88-6.71Z" transform="translate(-32.36 -155.62)"/><path class="cls-2" d="M221.58,354.73c.3,0,.34.65,1.3,2.35a22.47,22.47,0,0,0,2.72,3.78c1.26,1.49,4.43,5.75,12.36,17a6,6,0,0,0,2.87.58,5.83,5.83,0,0,0,2.53-.77c7.33-3.91,11-5.86,15-9.57a57.43,57.43,0,0,0,4.45-4.65,8,8,0,0,0,.29-2.68,9.32,9.32,0,0,0-.43-2.1c-.6-1.74-6.54-10.34-15.19-21.75a29.42,29.42,0,0,1,18.63,3.57,30.46,30.46,0,0,1,10.22,10.41A31.18,31.18,0,0,1,281.93,366a29.68,29.68,0,0,1-3.51,16.34l22.92,22.76-5.27,5.17-18.81-19.06a4.84,4.84,0,0,0-6.7,1.2c-2.25,2.73-1.25,6.52-1.1,7L288.17,418l-5.07,5.08-24.18-24.13A29.06,29.06,0,0,1,245,400.26a31,31,0,0,1-11.92-4.69c-2.3-1.5-11.39-7.85-14.12-19.68C216.51,365.15,220.38,354.69,221.58,354.73Z" transform="translate(-32.36 -155.62)"/><path class="cls-2" d="M376.38,487c-.29,0-.33-.64-1.3-2.34a22.64,22.64,0,0,0-2.74-3.77c-1.26-1.48-4.45-5.73-12.42-17a5.94,5.94,0,0,0-2.87-.56,6,6,0,0,0-2.54.77c-7.31,3.94-11,5.91-14.94,9.63a56.81,56.81,0,0,0-4.44,4.67,7.85,7.85,0,0,0-.27,2.68,9.32,9.32,0,0,0,.43,2.1c.6,1.73,6.59,10.31,15.28,21.69a29.4,29.4,0,0,1-18.65-3.5A30.38,30.38,0,0,1,321.67,491a31.14,31.14,0,0,1-5.68-15,29.79,29.79,0,0,1,3.45-16.36l-23-22.66,5.25-5.19,18.89,19a4.8,4.8,0,0,0,6.69-1.22c2.24-2.74,1.22-6.53,1.08-7L309.55,424l5.05-5.1,24.27,24a28.89,28.89,0,0,1,13.88-1.4,31,31,0,0,1,11.94,4.64c2.3,1.49,11.41,7.81,14.2,19.62C381.42,476.52,377.58,487,376.38,487Z" transform="translate(-32.36 -155.62)"/><g id="STROKES"><path class="cls-4" d="M191.29,641.8h-1.45a2.91,2.91,0,0,1-2.89-2.9V571.71a2.9,2.9,0,0,1,2.89-2.9h51.4a2.9,2.9,0,0,1,2.89,2.9V638.9a2.91,2.91,0,0,1-2.89,2.9h-1.45" transform="translate(-32.36 -155.62)"/><path class="cls-4" d="M233.82,641.8H197.26" transform="translate(-32.36 -155.62)"/><path class="cls-4" d="M187,585.25h57.19" transform="translate(-32.36 -155.62)"/><path class="cls-4" d="M195.1,574.1a3.11,3.11,0,1,1-3.11,3.11A3.11,3.11,0,0,1,195.1,574.1Z" transform="translate(-32.36 -155.62)"/><path class="cls-4" d="M203.5,577.21a3.11,3.11,0,1,1,3.1,3.1A3.1,3.1,0,0,1,203.5,577.21Z" transform="translate(-32.36 -155.62)"/><path class="cls-4" d="M194.83,615.16c0-.54-.06-1.09-.06-1.64a20.77,20.77,0,0,1,41.54,0c0,.55,0,1.1-.06,1.64a20.78,20.78,0,0,1-41.42,0Z" transform="translate(-32.36 -155.62)"/><path class="cls-4" d="M205.15,614.34a5.19,5.19,0,0,1-10.32.82,5.55,5.55,0,0,1-.07-.82" transform="translate(-32.36 -155.62)"/><path class="cls-4" d="M215.54,614.34a5.2,5.2,0,1,1-10.39,0" transform="translate(-32.36 -155.62)"/><path class="cls-4" d="M225.93,614.34a5.2,5.2,0,1,1-10.39,0" transform="translate(-32.36 -155.62)"/><path class="cls-4" d="M236.31,614.34a5.55,5.55,0,0,1-.06.82,5.19,5.19,0,0,1-10.32-.82" transform="translate(-32.36 -155.62)"/><path class="cls-4" d="M191.29,641.8h6v4.83h-6Z" transform="translate(-32.36 -155.62)"/><path class="cls-4" d="M233.82,641.8h6v4.83h-6Z" transform="translate(-32.36 -155.62)"/></g><path class="cls-5" d="M130.65,483h-3.44V465.76H86V483H82.54a10.29,10.29,0,0,0-10.31,10.3v20.62H86v13.75h41.23V513.87H141V493.25A10.29,10.29,0,0,0,130.65,483Zm-37.8-10.31h27.49V483H92.85Zm27.49,41.23v6.87H92.85V507h27.49Zm6.87-6.87v-6.87H86V507H79.11V493.25a3.44,3.44,0,0,1,3.43-3.43h48.11a3.44,3.44,0,0,1,3.44,3.43V507Z" transform="translate(-32.36 -155.62)"/><circle class="cls-5" cx="94.85" cy="339.36" r="3.44"/><path class="cls-5" d="M131.78,361.73l7-45.17h-14.9v-3.72H109v3.72H90.33A7.48,7.48,0,0,0,82.88,324v14.9a7.47,7.47,0,0,0,7.45,7.44h8.3L101,361.73a18.56,18.56,0,0,0-7,14.42v3.72a7.48,7.48,0,0,0,7.45,7.45h29.79a7.48,7.48,0,0,0,7.45-7.45v-3.72A18.58,18.58,0,0,0,131.78,361.73ZM90.33,338.91V324h4.88l2.31,14.9ZM130.06,324l-5.14,33.52h-17L102.73,324Zm1.23,55.86H101.5v-3.72A11.21,11.21,0,0,1,112.67,365h7.45a11.2,11.2,0,0,1,11.17,11.18Z" transform="translate(-32.36 -155.62)"/><circle class="cls-5" cx="84.03" cy="216.8" r="3.72"/><path class="cls-6" d="M210.59,212.79h8.35v12.52h-8.35Zm0,29.21h8.35v20.86h-8.35Zm41.73-41.69-50.07,0a8.34,8.34,0,0,0-8.35,8.34v66.77a8.38,8.38,0,0,0,8.35,8.35h50.07a8.38,8.38,0,0,0,8.35-8.35V208.61A8.31,8.31,0,0,0,252.32,200.31Zm0,75.07H202.25V237.74h50.07Zm0-45.9H202.25V208.61h50.07Z" transform="translate(-32.36 -155.62)"/><path class="cls-7" d="M388.48,256.27a6.4,6.4,0,0,0,6.38-6.41l0-32a6.43,6.43,0,0,0-6.41-6.41H337.23a6.43,6.43,0,0,0-6.41,6.41v32a6.42,6.42,0,0,0,6.41,6.41H324.41v6.41H401.3v-6.41Zm-51.25-38.44h51.25v32H337.23Z" transform="translate(-32.36 -155.62)"/><path class="cls-6" d="M495.76,309.84H468.93a10,10,0,0,0-10.06,10.06v53.65a10,10,0,0,0,10.06,10.06h26.83a10,10,0,0,0,10.06-10.06V319.9A10,10,0,0,0,495.76,309.84Zm3.35,57H465.58v-47h33.53Zm-10.06,10.06H475.64v-3.36h13.41Z" transform="translate(-32.36 -155.62)"/><path class="cls-6" d="M390.44,572.1H349a8.31,8.31,0,0,0-8.28,8.29v66.27A8.28,8.28,0,0,0,349,654.9l41.42,0a8.3,8.3,0,0,0,8.28-8.28V580.39A8.31,8.31,0,0,0,390.44,572.1ZM349,646.66V580.39h41.42v66.27Zm20.71-45.56a8.29,8.29,0,1,0-8.28-8.29A8.31,8.31,0,0,0,369.73,601.1Zm0,8.28A16.57,16.57,0,1,0,386.3,626,16.57,16.57,0,0,0,369.73,609.38Zm0,24.85A8.29,8.29,0,1,1,378,626,8.31,8.31,0,0,1,369.73,634.23Z" transform="translate(-32.36 -155.62)"/><path class="cls-6" d="M498.9,454.06l1.75,10.57a33.72,33.72,0,0,0-11.6-2,34.39,34.39,0,0,0-11.55,2l1.75-10.53H498.9m1.75,74.69-1.75,10.57H479.25l-1.75-10.53a34.39,34.39,0,0,0,11.55,2,33.72,33.72,0,0,0,11.6-2m5.45-83.21H472L468,470a34,34,0,0,0,0,53.46L472,547.85h34.1l4.1-24.43a34,34,0,0,0,0-53.46Zm-17.05,76.73a25.58,25.58,0,1,1,25.58-25.58A25.59,25.59,0,0,1,489.05,522.27Z" transform="translate(-32.36 -155.62)"/></svg>